<svg width="21" height="18" viewBox="0 0 21 18" fill="none" xmlns="http://www.w3.org/2000/svg">
<path d="M13 8H12V7C12 6.73478 11.8946 6.48043 11.7071 6.29289C11.5195 6.10536 11.2652 6 11 6C10.7348 6 10.4804 6.10536 10.2929 6.29289C10.1053 6.48043 9.99997 6.73478 9.99997 7V8H8.99997C8.73475 8 8.4804 8.10536 8.29286 8.29289C8.10533 8.48043 7.99997 8.73478 7.99997 9C7.99997 9.26522 8.10533 9.51957 8.29286 9.70711C8.4804 9.89464 8.73475 10 8.99997 10H9.99997V11C9.99997 11.2652 10.1053 11.5196 10.2929 11.7071C10.4804 11.8946 10.7348 12 11 12C11.2652 12 11.5195 11.8946 11.7071 11.7071C11.8946 11.5196 12 11.2652 12 11V10H13C13.2652 10 13.5195 9.89464 13.7071 9.70711C13.8946 9.51957 14 9.26522 14 9C14 8.73478 13.8946 8.48043 13.7071 8.29289C13.5195 8.10536 13.2652 8 13 8ZM19.16 2C18.0937 0.944704 16.6853 0.305271 15.189 0.197083C13.6927 0.0888936 12.207 0.519074 11 1.41C9.72763 0.463638 8.14396 0.0345119 6.56789 0.209038C4.99182 0.383564 3.54041 1.14878 2.50594 2.35059C1.47148 3.55239 0.930793 5.10152 0.992771 6.68601C1.05475 8.27051 1.71479 9.77267 2.83997 10.89L8.83997 16.94C9.40247 17.5018 10.165 17.8174 10.96 17.8174C11.755 17.8174 12.5175 17.5018 13.08 16.94L19.08 10.89C19.6709 10.3126 20.1419 9.6242 20.4659 8.86423C20.7899 8.10426 20.9606 7.28775 20.968 6.46163C20.9754 5.63551 20.8195 4.81606 20.5092 4.05038C20.199 3.2847 19.7404 2.58789 19.16 2ZM17.75 9.46L11.75 15.46C11.657 15.5537 11.5464 15.6281 11.4245 15.6789C11.3027 15.7297 11.172 15.7558 11.04 15.7558C10.908 15.7558 10.7773 15.7297 10.6554 15.6789C10.5335 15.6281 10.4229 15.5537 10.33 15.46L4.32997 9.46C3.54573 8.65835 3.10658 7.58147 3.10658 6.46C3.10658 5.33853 3.54573 4.26166 4.32997 3.46C5.12913 2.67099 6.20694 2.22857 7.32997 2.22857C8.453 2.22857 9.53082 2.67099 10.33 3.46C10.4229 3.55373 10.5335 3.62812 10.6554 3.67889C10.7773 3.72966 10.908 3.7558 11.04 3.7558C11.172 3.7558 11.3027 3.72966 11.4245 3.67889C11.5464 3.62812 11.657 3.55373 11.75 3.46C12.5491 2.67099 13.6269 2.22857 14.75 2.22857C15.873 2.22857 16.9508 2.67099 17.75 3.46C18.5402 4.26255 18.9832 5.34368 18.9832 6.47C18.9832 7.59632 18.5402 8.67745 17.75 9.48V9.46Z" fill="#DCE0EC"/>
</svg>
