<svg width="24" height="24" viewBox="0 0 24 24" fill="none" xmlns="http://www.w3.org/2000/svg">
<path d="M15.5 4V4.5H16H17C17.663 4.5 18.2989 4.76339 18.7678 5.23223C19.2366 5.70107 19.5 6.33696 19.5 7V19C19.5 19.663 19.2366 20.2989 18.7678 20.7678C18.2989 21.2366 17.663 21.5 17 21.5H7C6.33696 21.5 5.70107 21.2366 5.23223 20.7678C4.76339 20.2989 4.5 19.663 4.5 19V7C4.5 6.33696 4.76339 5.70107 5.23223 5.23223C5.70107 4.76339 6.33696 4.5 7 4.5H8H8.5V4C8.5 3.60218 8.65804 3.22064 8.93934 2.93934C9.22064 2.65804 9.60218 2.5 10 2.5H14C14.3978 2.5 14.7794 2.65804 15.0607 2.93934C15.342 3.22064 15.5 3.60218 15.5 4ZM10 3.5H9.5V4V6V6.5H10H14H14.5V6V5V4V3.5H14H10ZM8.5 6V5.5H8H7C6.60217 5.5 6.22064 5.65804 5.93934 5.93934C5.65804 6.22064 5.5 6.60218 5.5 7V19C5.5 19.3978 5.65804 19.7794 5.93934 20.0607C6.22065 20.342 6.60218 20.5 7 20.5H17C17.3978 20.5 17.7794 20.342 18.0607 20.0607C18.342 19.7794 18.5 19.3978 18.5 19V7C18.5 6.60218 18.342 6.22064 18.0607 5.93934C17.7794 5.65804 17.3978 5.5 17 5.5H16H15.5V6C15.5 6.39782 15.342 6.77936 15.0607 7.06066C14.7794 7.34196 14.3978 7.5 14 7.5H10C9.60218 7.5 9.22064 7.34197 8.93934 7.06066C8.65804 6.77936 8.5 6.39782 8.5 6Z" fill="white" stroke="#DCE0EC"/>
</svg>
