<svg width="132" height="32" viewBox="0 0 132 32" fill="none" xmlns="http://www.w3.org/2000/svg">
<path d="M21.6389 20.3435C20.0798 22.3721 17.4396 23.2754 14.9263 22.8483C12.1752 22.3813 9.91074 20.251 9.28809 17.549C9.84829 20.7099 11.5833 23.542 14.1449 25.4768C15.7695 26.6993 17.6608 27.5191 19.6636 27.8689C21.6665 28.2188 23.7237 28.0887 25.6665 27.4894C26.1936 27.3264 26.7098 27.1303 27.2121 26.9023C27.4309 26.8024 27.646 26.6957 27.8593 26.5842C28.0517 26.4819 28.39 26.3636 28.5334 26.1987L21.762 20.4453L21.6389 20.3435Z" fill="url(#paint0_linear_7:996)"/>
<path d="M10.569 4.48178C7.08372 4.36963 3.98332 5.5322 2.25753 7.82671C0.367638 10.9866 -0.368708 14.7039 0.17384 18.3457C0.871264 23.0505 3.63277 27.0886 7.51578 29.5259C5.21024 26.3495 5.17102 22.6577 5.39777 20.7339C6.07191 15.0062 9.7723 12.3103 10.4844 11.8629C11.0775 11.0715 11.8309 10.414 12.6953 9.93335C13.5597 9.45273 14.5158 9.15981 15.5011 9.0737C16.4864 8.98758 17.4788 9.11022 18.4135 9.4336C19.3481 9.75697 20.2041 10.2738 20.9255 10.9504L20.9482 10.9314C18.7352 7.36769 15.0949 4.62641 10.569 4.48178Z" fill="url(#paint1_linear_7:996)"/>
<path d="M16.1151 2.69227e-05C13.3257 -0.00473979 10.5827 0.713829 8.15389 2.08559C5.72508 3.45735 3.69346 5.43543 2.25732 7.82673C3.98311 5.53222 7.08352 4.36965 10.5688 4.4818C15.0947 4.62643 18.735 7.36771 20.9505 10.9314L27.8689 5.05359C26.3581 3.45398 24.536 2.18045 22.5146 1.31136C20.4932 0.442272 18.3154 -0.00399333 16.1151 2.69227e-05Z" fill="url(#paint2_linear_7:996)"/>
<path d="M27.9366 26.5408C25.1009 28.0686 21.6898 28.459 18.5747 27.631C15.7034 26.8629 13.1864 25.1247 11.4509 22.7117C9.25939 19.6475 8.05391 15.1209 10.4869 11.8643C9.77235 12.3116 6.07441 15.0076 5.40027 20.7353C5.17536 22.6449 5.21336 26.295 7.46558 29.4543C8.14707 30.0248 9.01976 30.3889 9.8275 30.7296C12.914 32.0302 16.3279 32.3415 19.5988 31.6207C22.8696 30.8999 25.8365 29.1825 28.0904 26.705C28.2383 26.5416 28.3826 26.3761 28.5231 26.2086C28.3307 26.3238 28.1352 26.4346 27.9366 26.5408Z" fill="url(#paint3_linear_7:996)"/>
<path d="M49.415 13.6799C49.415 14.2099 49.29 14.7099 49.04 15.1799C48.79 15.6499 48.39 16.0349 47.84 16.3349C47.29 16.6249 46.585 16.7699 45.725 16.7699H43.835V20.9999H42.125V10.5749H45.725C46.525 10.5749 47.2 10.7149 47.75 10.9949C48.31 11.2649 48.725 11.6349 48.995 12.1049C49.275 12.5749 49.415 13.0999 49.415 13.6799ZM45.725 15.3749C46.375 15.3749 46.86 15.2299 47.18 14.9399C47.5 14.6399 47.66 14.2199 47.66 13.6799C47.66 12.5399 47.015 11.9699 45.725 11.9699H43.835V15.3749H45.725Z" fill="#202225"/>
<path d="M57.3309 18.8699H52.9659L52.2159 20.9999H50.4309L54.1659 10.5599H56.1459L59.8809 20.9999H58.0809L57.3309 18.8699ZM56.8509 17.4749L55.1559 12.6299L53.4459 17.4749H56.8509Z" fill="#202225"/>
<path d="M63.2149 19.6199H66.7399V20.9999H61.5049V10.5749H63.2149V19.6199Z" fill="#202225"/>
<path d="M79.1499 10.5749V20.9999H77.4399V13.8599L74.2599 20.9999H73.0749L69.8799 13.8599V20.9999H68.1699V10.5749H70.0149L73.6749 18.7499L77.3199 10.5749H79.1499Z" fill="#202225"/>
<path d="M84.7239 15.7649C84.7239 14.7449 84.9589 13.8299 85.4289 13.0199C85.9089 12.2099 86.5539 11.5799 87.3639 11.1299C88.1839 10.6699 89.0789 10.4399 90.0489 10.4399C91.1589 10.4399 92.1439 10.7149 93.0039 11.2649C93.8739 11.8049 94.5039 12.5749 94.8939 13.5749H92.8389C92.5689 13.0249 92.1939 12.6149 91.7139 12.3449C91.2339 12.0749 90.6789 11.9399 90.0489 11.9399C89.3589 11.9399 88.7439 12.0949 88.2039 12.4049C87.6639 12.7149 87.2389 13.1599 86.9289 13.7399C86.6289 14.3199 86.4789 14.9949 86.4789 15.7649C86.4789 16.5349 86.6289 17.2099 86.9289 17.7899C87.2389 18.3699 87.6639 18.8199 88.2039 19.1399C88.7439 19.4499 89.3589 19.6049 90.0489 19.6049C90.6789 19.6049 91.2339 19.4699 91.7139 19.1999C92.1939 18.9299 92.5689 18.5199 92.8389 17.9699H94.8939C94.5039 18.9699 93.8739 19.7399 93.0039 20.2799C92.1439 20.8199 91.1589 21.0899 90.0489 21.0899C89.0689 21.0899 88.1739 20.8649 87.3639 20.4149C86.5539 19.9549 85.9089 19.3199 85.4289 18.5099C84.9589 17.6999 84.7239 16.7849 84.7239 15.7649Z" fill="#202225"/>
<path d="M98.6055 19.6199H102.131V20.9999H96.8955V10.5749H98.6055V19.6199Z" fill="#202225"/>
<path d="M105.271 10.5749V20.9999H103.561V10.5749H105.271Z" fill="#202225"/>
<path d="M116.081 20.9999H114.371L109.226 13.2149V20.9999H107.516V10.5599H109.226L114.371 18.3299V10.5599H116.081V20.9999Z" fill="#202225"/>
<path d="M120.036 10.5749V20.9999H118.326V10.5749H120.036Z" fill="#202225"/>
<path d="M121.711 15.7649C121.711 14.7449 121.946 13.8299 122.416 13.0199C122.896 12.2099 123.541 11.5799 124.351 11.1299C125.171 10.6699 126.066 10.4399 127.036 10.4399C128.146 10.4399 129.131 10.7149 129.991 11.2649C130.861 11.8049 131.491 12.5749 131.881 13.5749H129.826C129.556 13.0249 129.181 12.6149 128.701 12.3449C128.221 12.0749 127.666 11.9399 127.036 11.9399C126.346 11.9399 125.731 12.0949 125.191 12.4049C124.651 12.7149 124.226 13.1599 123.916 13.7399C123.616 14.3199 123.466 14.9949 123.466 15.7649C123.466 16.5349 123.616 17.2099 123.916 17.7899C124.226 18.3699 124.651 18.8199 125.191 19.1399C125.731 19.4499 126.346 19.6049 127.036 19.6049C127.666 19.6049 128.221 19.4699 128.701 19.1999C129.181 18.9299 129.556 18.5199 129.826 17.9699H131.881C131.491 18.9699 130.861 19.7399 129.991 20.2799C129.131 20.8199 128.146 21.0899 127.036 21.0899C126.056 21.0899 125.161 20.8649 124.351 20.4149C123.541 19.9549 122.896 19.3199 122.416 18.5099C121.946 17.6999 121.711 16.7849 121.711 15.7649Z" fill="#202225"/>
<defs>
<linearGradient id="paint0_linear_7:996" x1="24.0222" y1="18.6417" x2="13.4775" y2="25.334" gradientUnits="userSpaceOnUse">
<stop stop-color="#FFC6BA"/>
<stop offset="0.49" stop-color="#E781A6"/>
<stop offset="1" stop-color="#79578A"/>
</linearGradient>
<linearGradient id="paint1_linear_7:996" x1="4.12305" y1="19.344" x2="16.6515" y2="7.32969" gradientUnits="userSpaceOnUse">
<stop stop-color="#FFC6BA"/>
<stop offset="0.5" stop-color="#E781A6"/>
<stop offset="1" stop-color="#79578A"/>
</linearGradient>
<linearGradient id="paint2_linear_7:996" x1="10.6454" y1="3.32229" x2="25.5236" y2="12.8736" gradientUnits="userSpaceOnUse">
<stop offset="0.01" stop-color="#FFC6BA"/>
<stop offset="0.5" stop-color="#E781A6"/>
<stop offset="1" stop-color="#A66894"/>
</linearGradient>
<linearGradient id="paint3_linear_7:996" x1="19.4615" y1="28.4786" x2="4.41114" y2="17.2604" gradientUnits="userSpaceOnUse">
<stop stop-color="#A66894"/>
<stop offset="0.5" stop-color="#E781A6"/>
<stop offset="0.99" stop-color="#FFC6BA"/>
</linearGradient>
</defs>
</svg>
