<svg width="22" height="22" viewBox="0 0 22 22" fill="none" xmlns="http://www.w3.org/2000/svg">
<path d="M9.93994 5.07994C10.2907 5.02617 10.6451 4.99943 10.9999 4.99994C14.1799 4.99994 17.1699 7.28994 18.9099 10.9999C18.6438 11.5645 18.3433 12.1122 18.0099 12.6399C17.9041 12.8038 17.8485 12.9949 17.8499 13.1899C17.8522 13.4082 17.9257 13.6197 18.0594 13.7922C18.1931 13.9647 18.3795 14.0888 18.5903 14.1455C18.8011 14.2021 19.0246 14.1883 19.2267 14.106C19.4289 14.0238 19.5986 13.8776 19.7099 13.6899C20.1759 12.9579 20.5806 12.1886 20.9199 11.3899C20.9736 11.2652 21.0013 11.1308 21.0013 10.9949C21.0013 10.8591 20.9736 10.7247 20.9199 10.5999C18.8999 5.90994 15.0999 2.99994 10.9999 2.99994C10.5306 2.99758 10.062 3.03774 9.59994 3.11994C9.46862 3.14227 9.34298 3.19024 9.2302 3.26112C9.11742 3.332 9.0197 3.4244 8.94263 3.53304C8.86555 3.64169 8.81063 3.76445 8.78101 3.89432C8.75138 4.02419 8.74762 4.15862 8.76994 4.28994C8.79227 4.42126 8.84024 4.5469 8.91112 4.65968C8.982 4.77247 9.0744 4.87018 9.18304 4.94726C9.29169 5.02433 9.41445 5.07925 9.54432 5.10888C9.67419 5.13851 9.80862 5.14227 9.93994 5.11994V5.07994ZM2.70994 1.28994C2.6167 1.1967 2.50601 1.12274 2.38419 1.07228C2.26237 1.02182 2.1318 0.99585 1.99994 0.99585C1.86808 0.99585 1.73751 1.02182 1.61569 1.07228C1.49387 1.12274 1.38318 1.1967 1.28994 1.28994C1.10164 1.47824 0.99585 1.73364 0.99585 1.99994C0.99585 2.26624 1.10164 2.52164 1.28994 2.70994L4.38994 5.79994C2.97551 7.16147 1.8498 8.79393 1.07994 10.5999C1.02488 10.7261 0.996456 10.8623 0.996456 10.9999C0.996456 11.1376 1.02488 11.2738 1.07994 11.3999C3.09994 16.0899 6.89994 18.9999 10.9999 18.9999C12.797 18.9875 14.5517 18.4524 16.0499 17.4599L19.2899 20.7099C19.3829 20.8037 19.4935 20.8781 19.6154 20.9288C19.7372 20.9796 19.8679 21.0057 19.9999 21.0057C20.132 21.0057 20.2627 20.9796 20.3845 20.9288C20.5064 20.8781 20.617 20.8037 20.7099 20.7099C20.8037 20.617 20.8781 20.5064 20.9288 20.3845C20.9796 20.2627 21.0057 20.132 21.0057 19.9999C21.0057 19.8679 20.9796 19.7372 20.9288 19.6154C20.8781 19.4935 20.8037 19.3829 20.7099 19.2899L2.70994 1.28994ZM9.06994 10.4799L11.5199 12.9299C11.3509 12.9784 11.1758 13.002 10.9999 12.9999C10.4695 12.9999 9.9608 12.7892 9.58573 12.4142C9.21066 12.0391 8.99994 11.5304 8.99994 10.9999C8.99789 10.8241 9.02147 10.649 9.06994 10.4799ZM10.9999 16.9999C7.81994 16.9999 4.82994 14.7099 3.09994 10.9999C3.74603 9.57369 4.66301 8.28652 5.79994 7.20994L7.56994 8.99994C7.15419 9.75874 6.99568 10.6319 7.1182 11.4884C7.24072 12.3449 7.63766 13.1386 8.24947 13.7504C8.86128 14.3622 9.65497 14.7592 10.5115 14.8817C11.368 15.0042 12.2411 14.8457 12.9999 14.4299L14.5899 15.9999C13.501 16.6408 12.2634 16.9856 10.9999 16.9999Z" fill="#A1ABC9"/>
</svg>
